<svg width="400" height="139" viewBox="0 0 400 139" fill="none" xmlns="http://www.w3.org/2000/svg">
<path d="M18.7866 58.4107L0 0.984447H13.7823L30.1078 51.8477H23.2166L40.2804 0.984447H52.586L68.9935 51.8477H62.3485L79.0841 0.984447H91.7999L73.0134 58.4107H58.7388L44.2182 13.7823H47.9919L33.0611 58.4107H18.7866Z" fill="#527BE3"/>
<path d="M126.471 59.3951C121.932 59.3951 117.72 58.6568 113.837 57.1801C110.009 55.7034 106.673 53.6252 103.829 50.9453C101.039 48.2654 98.8517 45.1206 97.2657 41.511C95.7343 37.9013 94.9686 33.9635 94.9686 29.6976C94.9686 25.4316 95.7343 21.4938 97.2657 17.8842C98.8517 14.2745 101.067 11.1298 103.911 8.44986C106.755 5.76997 110.091 3.69168 113.919 2.21501C117.748 0.738336 121.904 0 126.389 0C130.928 0 135.085 0.738336 138.859 2.21501C142.687 3.69168 145.996 5.76997 148.785 8.44986C151.629 11.1298 153.844 14.2745 155.43 17.8842C157.016 21.4391 157.809 25.3769 157.809 29.6976C157.809 33.9635 157.016 37.9287 155.43 41.593C153.844 45.2026 151.629 48.3474 148.785 51.0273C145.996 53.6525 142.687 55.7034 138.859 57.1801C135.085 58.6568 130.956 59.3951 126.471 59.3951ZM126.389 48.074C128.959 48.074 131.311 47.6364 133.444 46.7614C135.632 45.8863 137.546 44.6284 139.187 42.9876C140.828 41.3469 142.085 39.4053 142.961 37.163C143.89 34.9206 144.355 32.4321 144.355 29.6976C144.355 26.963 143.89 24.4745 142.961 22.2322C142.085 19.9898 140.828 18.0482 139.187 16.4075C137.601 14.7667 135.714 13.5088 133.526 12.6338C131.339 11.7587 128.959 11.3212 126.389 11.3212C123.818 11.3212 121.439 11.7587 119.252 12.6338C117.119 13.5088 115.232 14.7667 113.591 16.4075C111.95 18.0482 110.665 19.9898 109.735 22.2322C108.86 24.4745 108.423 26.963 108.423 29.6976C108.423 32.3775 108.86 34.8659 109.735 37.163C110.665 39.4053 111.923 41.3469 113.509 42.9876C115.15 44.6284 117.064 45.8863 119.252 46.7614C121.439 47.6364 123.818 48.074 126.389 48.074Z" fill="#527BE3"/>
<path d="M167.797 58.4107V0.984447H192.655C197.796 0.984447 202.226 1.83217 205.945 3.52761C209.664 5.16836 212.535 7.54744 214.559 10.6649C216.582 13.7823 217.594 17.5013 217.594 21.822C217.594 26.0879 216.582 29.7796 214.559 32.897C212.535 35.9598 209.664 38.3115 205.945 39.9522C202.226 41.593 197.796 42.4134 192.655 42.4134H175.181L181.087 36.5887V58.4107H167.797ZM204.304 58.4107L189.947 37.5732H204.14L218.661 58.4107H204.304ZM181.087 38.0654L175.181 31.8305H191.916C196.018 31.8305 199.081 30.9555 201.105 29.2053C203.128 27.4005 204.14 24.9394 204.14 21.822C204.14 18.6499 203.128 16.1887 201.105 14.4386C199.081 12.6885 196.018 11.8134 191.916 11.8134H175.181L181.087 5.49651V38.0654Z" fill="#527BE3"/>
<path d="M240.019 45.2847L239.281 29.9437L266.763 0.984447H281.53L256.755 27.6466L249.371 35.5222L240.019 45.2847ZM228.124 58.4107V0.984447H241.332V58.4107H228.124ZM267.42 58.4107L246.992 33.3893L255.688 23.9549L282.925 58.4107H267.42Z" fill="#527BE3"/>
<path d="M243.472 114.168C246.815 112.429 249.911 110.352 252.76 107.936L265.148 119.828L265.53 120.195L265.874 119.791L275.78 108.162L276.086 107.804L275.746 107.477L263.391 95.6236C267.54 89.1033 270.508 81.5296 272.3 72.91L272.391 72.4719L271.966 72.333L257.466 67.5953L256.926 67.4188L256.819 67.977C255.635 74.196 253.877 79.6228 251.552 84.2641L230.816 64.3686C233.698 62.7364 236.215 61.1387 238.365 59.5753C242.708 56.4864 245.922 53.2332 247.977 49.8079L247.98 49.8025C250.035 46.2799 251.063 42.4601 251.063 38.3525C251.063 33.6747 249.893 29.6482 247.531 26.2986C245.272 22.8646 242.085 20.271 237.989 18.5144C233.986 16.6606 229.223 15.7434 223.716 15.7434C217.823 15.7434 212.63 16.7576 208.151 18.8015C203.672 20.7498 200.196 23.5837 197.746 27.3077C195.293 30.9391 194.072 35.1534 194.072 39.9317C194.072 42.6662 194.512 45.3516 195.39 47.9859L195.39 47.9859L195.392 47.9914C196.274 50.54 197.739 53.1697 199.772 55.8804C201.198 57.783 202.932 59.8004 204.971 61.9325C201.338 64.0342 198.153 66.1388 195.418 68.2467C190.786 71.7215 187.382 75.4086 185.233 79.3149C183.083 83.224 182.013 87.6152 182.013 92.4767C182.013 97.8492 183.628 102.601 186.857 106.711C190.078 110.81 194.507 114.016 200.124 116.34C205.745 118.666 212.08 119.823 219.122 119.823C228.095 119.823 236.215 117.941 243.472 114.168ZM226.31 50.2831C224.604 51.4205 222.528 52.6591 220.08 53.999C218.24 52.1464 216.757 50.556 215.627 49.2268C214.022 47.3383 212.908 45.6615 212.264 44.1941C211.714 42.7225 211.439 41.2069 211.439 39.6446C211.439 36.6173 212.487 34.2236 214.569 32.4129L214.57 32.4119C216.75 30.5042 219.778 29.5207 223.716 29.5207C227.372 29.5207 230.107 30.4108 231.995 32.1192L231.995 32.1194L232.005 32.1281C233.894 33.7472 234.845 35.9003 234.845 38.6396C234.845 40.6315 234.213 42.5429 232.926 44.3826L232.921 44.3897L232.916 44.3969C231.728 46.2248 229.547 48.1889 226.316 50.2793L226.316 50.2793L226.31 50.2831ZM208.942 76.5102C210.76 75.1469 212.976 73.7281 215.592 72.2544L241.481 97.1083C240.016 98.288 238.465 99.3252 236.83 100.22C231.932 102.857 226.464 104.18 220.414 104.18C216.347 104.18 212.822 103.612 209.829 102.491C206.833 101.273 204.518 99.6455 202.86 97.621C201.306 95.6082 200.528 93.278 200.528 90.6104C200.528 87.9193 201.176 85.4705 202.47 83.2533C203.765 81.0334 205.911 78.7834 208.942 76.5102Z" stroke="#717171"/>
<path d="M223.388 138.397V80.971H239.631V125.517H267.032V138.397H223.388Z" fill="black"/>
<path d="M273.46 138.397V80.971H289.703V138.397H273.46Z" fill="black"/>
<path d="M316.354 106.156H342.853V118.708H316.354V106.156ZM317.503 138.397H301.26V80.971H346.298V93.5227H317.503V138.397Z" fill="black"/>
<path d="M368.826 103.203H395.488V115.345H368.826V103.203ZM369.974 125.845H400V138.397H353.895V80.971H398.934V93.5227H369.974V125.845Z" fill="black"/>
</svg>
